<svg width="37" height="36" viewBox="0 0 37 36" fill="none" xmlns="http://www.w3.org/2000/svg">
<path fill-rule="evenodd" clip-rule="evenodd" d="M5.68508 10.0558C5 11.7098 5 13.8065 5 18C5 22.1935 5 24.2902 5.68508 25.9442C6.59853 28.1494 8.3506 29.9015 10.5558 30.8149C12.2098 31.5 14.3065 31.5 18.5 31.5H26C28.8284 31.5 30.2426 31.5 31.1213 30.6213C32 29.7426 32 28.3284 32 25.5V18C32 13.8065 32 11.7098 31.3149 10.0558C30.4015 7.8506 28.6494 6.09853 26.4442 5.18508C24.7902 4.5 22.6935 4.5 18.5 4.5C14.3065 4.5 12.2098 4.5 10.5558 5.18508C8.3506 6.09853 6.59853 7.8506 5.68508 10.0558ZM13 16.5C13 15.9477 13.4477 15.5 14 15.5H23C23.5523 15.5 24 15.9477 24 16.5C24 17.0523 23.5523 17.5 23 17.5H14C13.4477 17.5 13 17.0523 13 16.5ZM17.5 22.5C17.5 21.9477 17.9477 21.5 18.5 21.5H23C23.5523 21.5 24 21.9477 24 22.5C24 23.0523 23.5523 23.5 23 23.5H18.5C17.9477 23.5 17.5 23.0523 17.5 22.5Z" fill="#1D1A05"/>
</svg>
