<svg width="96" height="54" viewBox="0 0 96 54" fill="none" xmlns="http://www.w3.org/2000/svg">
<path d="M8.45182 52.8167C8.10567 53.1629 7.58645 53.336 6.92299 53.336H2.04805C1.3846 53.336 0.865375 53.1629 0.519225 52.8167C0.173076 52.4706 0 51.9514 0 51.2879V2.07698C0 1.41353 0.173076 0.923147 0.519225 0.548152C0.865375 0.202002 1.3846 0.0289307 2.04805 0.0289307H6.92299C7.58645 0.0289307 8.07683 0.202002 8.45182 0.548152C8.79797 0.894301 8.97104 1.41353 8.97104 2.07698V20.8844H14.1633V2.07698C14.1633 1.41353 14.3364 0.923147 14.6825 0.548152C15.0287 0.202002 15.5479 0.0289307 16.2113 0.0289307H21.0863C21.692 0.0289307 22.1824 0.202002 22.5574 0.548152C22.9324 0.894301 23.1343 1.41353 23.1343 2.07698V51.2591C23.1343 51.9225 22.9324 52.4417 22.5574 52.7879C22.1824 53.134 21.692 53.3071 21.0863 53.3071H16.2113C15.5479 53.3071 15.0287 53.134 14.6825 52.7879C14.3364 52.4417 14.1633 51.9225 14.1633 51.2591V28.644H8.97104V51.2591C8.97104 51.9514 8.79797 52.4418 8.45182 52.8167Z" fill="#FDFEE4"/>
<path d="M27.5477 52.8166C27.2016 52.4705 27.0285 51.9512 27.0285 51.2878V2.07686C27.0285 1.4134 27.2016 0.923025 27.5477 0.548029C27.8939 0.20188 28.4131 0.0288086 29.0766 0.0288086H41.336C41.9995 0.0288086 42.4899 0.20188 42.8649 0.548029C43.211 0.894179 43.3841 1.4134 43.3841 2.07686V6.11527C43.3841 6.72103 43.211 7.21141 42.8649 7.55756C42.5187 7.90371 41.9995 8.07679 41.336 8.07679H35.9995V45.2302H41.336C41.9995 45.2302 42.4899 45.4032 42.8649 45.7206C43.211 46.0379 43.3841 46.5571 43.3841 47.1917V51.2301C43.3841 51.8936 43.211 52.4128 42.8649 52.7589C42.5187 53.1051 41.9995 53.2782 41.336 53.2782H29.0766C28.4131 53.3358 27.9227 53.1628 27.5477 52.8166ZM31.3554 21.7208H40.3553C41.0187 21.7208 41.5091 21.8939 41.8841 22.2401C42.2302 22.5862 42.4033 23.1054 42.4033 23.7689V27.8073C42.4033 28.4131 42.2302 28.9035 41.8841 29.2496C41.5379 29.5957 41.0187 29.7688 40.3553 29.7688H31.3554V21.7208Z" fill="#FDFEE4"/>
<path d="M48.5763 51.2301C46.7879 49.384 45.9225 46.7879 45.9225 43.4129V40.2976C45.9225 39.6918 46.0956 39.2014 46.4129 38.8553C46.7302 38.5091 47.2494 38.3361 47.884 38.3361H52.6724C53.3359 38.3361 53.8263 38.5091 54.2013 38.8553C54.5474 39.2014 54.7205 39.6918 54.7205 40.2976V43.6437C54.7205 44.711 54.9224 45.461 55.2974 45.9225C55.6724 46.3841 56.3647 46.6148 57.4032 46.6148C58.3262 46.6148 58.9897 46.3552 59.3935 45.8648C59.7974 45.3456 59.9993 44.5668 59.9993 43.4995V27.5766H59.6243C59.1628 29.8554 58.3262 31.5862 57.1147 32.7688C55.9032 33.9227 54.3167 34.5284 52.384 34.5284C50.1917 34.5284 48.5186 33.865 47.3648 32.5381C46.1821 31.2112 45.6052 29.1631 45.6052 26.3651V2.0769C45.6052 1.41344 45.7783 0.923064 46.0956 0.548068C46.4129 0.201919 46.9321 0.0288476 47.5667 0.0288476H52.5282C53.134 0.0288476 53.6244 0.201919 53.9705 0.548068C54.3167 0.894218 54.4897 1.41344 54.4897 2.0769V23.3939C54.4897 24.2016 54.6916 24.8651 55.0666 25.3266C55.4416 25.817 56.0186 26.0478 56.7685 26.0478C57.6916 26.0478 58.4416 25.6728 59.0474 24.9516C59.6531 24.2305 59.9704 23.1632 59.9704 21.7786V2.04805C59.9704 1.3846 60.1435 0.894221 60.4897 0.519225C60.8358 0.173076 61.355 0 62.0185 0H66.8069C67.4703 0 67.9607 0.173076 68.3357 0.519225C68.6819 0.865375 68.8549 1.3846 68.8549 2.04805V42.2591C68.8549 46.0091 67.9896 48.9225 66.23 50.9417C64.4704 52.9609 61.5281 53.9993 57.3455 53.9993C53.307 54.0282 50.3648 53.1051 48.5763 51.2301Z" fill="#FDFEE4"/>
<path d="M78.2875 53.3358H73.2683C72.6626 53.3358 72.1722 53.1339 71.826 52.7589C71.4799 52.3839 71.3357 51.8647 71.451 51.2013L75.2587 8.01909L82.4125 8.10563L80.2779 51.3743C80.2202 52.6724 79.5567 53.3358 78.2875 53.3358ZM73.7875 7.67295C73.4414 7.29795 73.2683 6.83642 73.2683 6.2595V2.07686C73.2683 1.4134 73.4414 0.923025 73.7875 0.548029C74.1337 0.20188 74.6529 0.0288086 75.3164 0.0288086H88.5566C89.7681 0.0288086 90.4604 0.721105 90.6047 2.07686L95.1046 51.2013C95.22 51.8647 95.1046 52.3839 94.7584 52.7589C94.4411 53.1339 93.9219 53.3358 93.2008 53.3358H88.1816C87.5182 53.3358 86.9989 53.1628 86.6239 52.8455C86.2489 52.5282 86.047 52.0089 86.047 51.3743L83.999 8.27871H75.3164C74.6529 8.24986 74.1337 8.07679 73.7875 7.67295ZM79.4125 30.1727H87.172V37.788H79.4125V30.1727Z" fill="#FDFEE4"/>
</svg>
