<svg width="96" height="54" viewBox="0 0 96 54" fill="none" xmlns="http://www.w3.org/2000/svg">
<path d="M8.45182 52.8167C8.10567 53.1629 7.58645 53.336 6.92299 53.336H2.04805C1.3846 53.336 0.865375 53.1629 0.519225 52.8167C0.173076 52.4706 0 51.9514 0 51.2879V2.07698C0 1.41353 0.173076 0.923147 0.519225 0.548152C0.865375 0.202002 1.3846 0.0289307 2.04805 0.0289307H6.92299C7.58645 0.0289307 8.07683 0.202002 8.45182 0.548152C8.79797 0.894301 8.97104 1.41353 8.97104 2.07698V20.8844H14.1633V2.07698C14.1633 1.41353 14.3364 0.923147 14.6825 0.548152C15.0287 0.202002 15.5479 0.0289307 16.2113 0.0289307H21.0863C21.692 0.0289307 22.1824 0.202002 22.5574 0.548152C22.9324 0.894301 23.1343 1.41353 23.1343 2.07698V51.2591C23.1343 51.9225 22.9324 52.4417 22.5574 52.7879C22.1824 53.134 21.692 53.3071 21.0863 53.3071H16.2113C15.5479 53.3071 15.0287 53.134 14.6825 52.7879C14.3364 52.4417 14.1633 51.9225 14.1633 51.2591V28.644H8.97104V51.2591C8.97104 51.9514 8.79797 52.4418 8.45182 52.8167Z" fill="#668CEF"/>
<path d="M27.5477 52.8167C27.2016 52.4705 27.0285 51.9513 27.0285 51.2878V2.07692C27.0285 1.41347 27.2016 0.923086 27.5477 0.548091C27.8939 0.201941 28.4131 0.0288696 29.0766 0.0288696H41.336C41.9995 0.0288696 42.4899 0.201941 42.8649 0.548091C43.211 0.89424 43.3841 1.41347 43.3841 2.07692V6.11533C43.3841 6.72109 43.211 7.21147 42.8649 7.55762C42.5187 7.90377 41.9995 8.07685 41.336 8.07685H35.9995V45.2302H41.336C41.9995 45.2302 42.4899 45.4033 42.8649 45.7206C43.211 46.0379 43.3841 46.5571 43.3841 47.1917V51.2302C43.3841 51.8936 43.211 52.4128 42.8649 52.759C42.5187 53.1051 41.9995 53.2782 41.336 53.2782H29.0766C28.4131 53.3359 27.9227 53.1628 27.5477 52.8167ZM31.3554 21.7209H40.3553C41.0187 21.7209 41.5091 21.894 41.8841 22.2401C42.2302 22.5863 42.4033 23.1055 42.4033 23.769V27.8074C42.4033 28.4131 42.2302 28.9035 41.8841 29.2497C41.5379 29.5958 41.0187 29.7689 40.3553 29.7689H31.3554V21.7209Z" fill="#668CEF"/>
<path d="M48.5763 51.2301C46.7879 49.384 45.9225 46.7879 45.9225 43.4129V40.2976C45.9225 39.6918 46.0956 39.2014 46.4129 38.8553C46.7302 38.5091 47.2494 38.3361 47.884 38.3361H52.6724C53.3359 38.3361 53.8263 38.5091 54.2013 38.8553C54.5474 39.2014 54.7205 39.6918 54.7205 40.2976V43.6437C54.7205 44.711 54.9224 45.461 55.2974 45.9225C55.6724 46.3841 56.3647 46.6148 57.4032 46.6148C58.3262 46.6148 58.9897 46.3552 59.3935 45.8648C59.7974 45.3456 59.9993 44.5668 59.9993 43.4995V27.5766H59.6243C59.1628 29.8554 58.3262 31.5862 57.1147 32.7688C55.9032 33.9227 54.3167 34.5284 52.384 34.5284C50.1917 34.5284 48.5186 33.865 47.3648 32.5381C46.1821 31.2112 45.6052 29.1631 45.6052 26.3651V2.0769C45.6052 1.41344 45.7783 0.923064 46.0956 0.548068C46.4129 0.201919 46.9321 0.0288476 47.5667 0.0288476H52.5282C53.134 0.0288476 53.6244 0.201919 53.9705 0.548068C54.3167 0.894218 54.4897 1.41344 54.4897 2.0769V23.3939C54.4897 24.2016 54.6916 24.8651 55.0666 25.3266C55.4416 25.817 56.0186 26.0478 56.7685 26.0478C57.6916 26.0478 58.4416 25.6728 59.0474 24.9516C59.6531 24.2305 59.9704 23.1632 59.9704 21.7786V2.04805C59.9704 1.3846 60.1435 0.894221 60.4897 0.519225C60.8358 0.173076 61.355 0 62.0185 0H66.8069C67.4703 0 67.9607 0.173076 68.3357 0.519225C68.6819 0.865375 68.8549 1.3846 68.8549 2.04805V42.2591C68.8549 46.0091 67.9896 48.9225 66.23 50.9417C64.4704 52.9609 61.5281 53.9993 57.3455 53.9993C53.307 54.0282 50.3648 53.1051 48.5763 51.2301Z" fill="#668CEF"/>
<path d="M78.2875 53.3359H73.2683C72.6626 53.3359 72.1722 53.134 71.826 52.759C71.4799 52.384 71.3357 51.8648 71.451 51.2013L75.2587 8.01916L82.4125 8.10569L80.2779 51.3744C80.2202 52.6725 79.5567 53.3359 78.2875 53.3359ZM73.7875 7.67301C73.4414 7.29801 73.2683 6.83648 73.2683 6.25956V2.07692C73.2683 1.41347 73.4414 0.923086 73.7875 0.548091C74.1337 0.201941 74.6529 0.0288696 75.3164 0.0288696H88.5566C89.7681 0.0288696 90.4604 0.721166 90.6047 2.07692L95.1046 51.2013C95.22 51.8648 95.1046 52.384 94.7584 52.759C94.4411 53.134 93.9219 53.3359 93.2008 53.3359H88.1816C87.5182 53.3359 86.9989 53.1628 86.6239 52.8455C86.2489 52.5282 86.047 52.009 86.047 51.3744L83.999 8.27877H75.3164C74.6529 8.24992 74.1337 8.07685 73.7875 7.67301ZM79.4125 30.1727H87.172V37.788H79.4125V30.1727Z" fill="#668CEF"/>
</svg>
