<?xml version="1.0" encoding="UTF-8"?>
<svg id="Layer_1" data-name="Layer 1" xmlns="http://www.w3.org/2000/svg" viewBox="0 0 500 500">
  <defs>
    <style>
      .cls-1 {
        fill: #2a5ef3;
      }

      .cls-1, .cls-2, .cls-3 {
        stroke-width: 0px;
      }

      .cls-2 {
        fill: #a3b9ea;
      }

      .cls-3 {
        fill: #fdfee4;
      }
    </style>
  </defs>
  <rect class="cls-1" x="0" y="0" width="500" height="500" rx="89.05" ry="89.05"/>
  <g>
    <path class="cls-2" d="M95.46,388.8c-1.43,1.43-3.46,2.14-6.1,2.14h-19.53c-2.65,0-4.68-.71-6.1-2.14-1.43-1.42-2.14-3.46-2.14-6.1v-152.47c0-2.64.51-4.92,2.14-6.1,1.08-.79,2.36-1.09,5.87-2.68l19.77-7.24c2.64,0,4.68.71,6.1,2.14,1.42,1.43,2.14,3.46,2.14,6.1v38.49h20.75l.16-51.49c0-2.64.71-4.68,2.14-6.1,1.42-1.42,3.07-1.97,5.95-2.9l19.52-7.1c2.44,0,4.43.71,5.95,2.14,1.53,1.43,2.29,3.46,2.29,6.1v181.12c0,2.65-.76,4.68-2.29,6.1-1.53,1.43-3.51,2.14-5.95,2.14h-19.53c-2.65,0-4.68-.71-6.1-2.14-1.43-1.42-2.14-3.46-2.14-6.1v-90.64h-20.75v90.64c0,2.65-.71,4.68-2.14,6.1Z"/>
    <path class="cls-2" d="M172.06,388.8c-1.43-1.42-2.14-3.46-2.14-6.1v-191.97c0-2.64.71-4.68,2.14-6.1s3.77-2.48,8.5-3.99l46.73-16.86c2.64,0,4.68.71,6.1,2.14,1.42,1.43,2.14,3.46,2.14,6.1v29.71c0,2.44-.72,4.38-2.14,5.8-1.43,1.43-3.46,2.14-6.1,2.14h-21.36v148.92h21.36c2.64,0,4.68.66,6.1,1.98,1.42,1.33,2.14,3.31,2.14,5.95v16.17c0,2.65-.72,4.68-2.14,6.1-1.43,1.43-3.46,2.14-6.1,2.14h-49.13c-2.65,0-4.68-.71-6.1-2.14ZM187.31,264.29h36.01c2.64,0,4.68.72,6.1,2.14,1.42,1.43,2.14,3.46,2.14,6.1v16.17c0,2.44-.72,4.38-2.14,5.8s-3.46,2.14-6.1,2.14h-36.01v-32.35Z"/>
    <path class="cls-3" d="M257.5,382.54c-7.12-7.42-10.68-17.85-10.68-31.28v-12.51c0-2.44.66-4.37,1.98-5.8,1.32-1.42,3.3-2.14,5.95-2.14h19.23c2.64,0,4.68.71,6.1,2.14,1.42,1.43,2.14,3.36,2.14,5.8v13.43c0,4.27.76,7.32,2.29,9.15,1.53,1.83,4.32,2.75,8.39,2.75,3.66,0,6.3-1.01,7.93-3.05,1.63-2.03,2.44-5.19,2.44-9.46v-63.78h-1.53c-1.83,9.15-5.19,16.07-10.07,20.75-4.88,4.68-11.19,7.02-18.92,7.02-8.75,0-15.46-2.64-20.14-7.93-4.68-5.29-7.02-13.53-7.02-24.72v-119.13c0-2.64.66-4.68,1.98-6.1,1.32-1.42,3.59-2.14,6.24-2.14l19.7,7.21c2.49.87,4.22,1.24,5.65,2.66,1.42,1.43,2.14,3.46,2.14,6.1v99.49c0,3.26.76,5.85,2.29,7.78,1.53,1.94,3.81,2.9,6.87,2.9,3.66,0,6.71-1.47,9.15-4.42,2.44-2.95,3.66-7.17,3.66-12.66v-79.54c0-2.64.71-4.68,2.14-6.1,1.42-1.42,3.72-2.24,6.36-2.24l19.05,6.91c2.77,1.01,4.59,1.51,6.02,2.93,1.42,1.43,2.14,3.46,2.14,6.1v154.04c0,15.06-3.51,26.65-10.53,34.79-7.02,8.14-18.87,12.21-35.55,12.21s-28.28-3.71-35.4-11.14Z"/>
    <path class="cls-3" d="M376.21,390.93h-20.14c-2.44,0-4.38-.76-5.8-2.29-1.43-1.53-1.94-3.61-1.53-6.25l15.26-173.03,28.69.3-8.54,173.34c-.21,5.29-2.85,7.93-7.93,7.93ZM358.21,226.9c-1.43-1.53-2.14-3.4-2.14-5.65v-16.78c0-2.64.71-4.68,2.14-6.1s3.78-2.28,6.43-2.28l50.45,18.4c4.46,1.6,7.45,3.52,8.06,9.01l20.52,158.89c.41,2.65-.05,4.73-1.37,6.25-1.33,1.53-3.41,2.29-6.26,2.29h-20.14c-2.65,0-4.73-.66-6.26-1.98-1.53-1.32-2.29-3.3-2.29-5.95l-8.24-153.81h-34.79c-2.65,0-4.68-.76-6.1-2.29ZM380.79,298.16h31.13v30.52h-31.13v-30.52Z"/>
    <g>
      <rect class="cls-3" x="42.89" y="142.86" width="225.58" height="31.43" rx="6.54" ry="6.54" transform="translate(-45.01 63.15) rotate(-20.1)"/>
      <rect class="cls-3" x="236.64" y="140.32" width="209.61" height="32.04" rx="6.54" ry="6.54" transform="translate(608.37 420.49) rotate(-159.9)"/>
    </g>
  </g>
</svg>