<svg width="500" height="305" viewBox="0 0 500 305" fill="none" xmlns="http://www.w3.org/2000/svg">
<g clip-path="url(#clip0_286_13442)">
<path d="M41.5578 298.753C39.7001 300.625 37.0884 301.554 33.669 301.554H10.6621C7.25613 301.554 4.61754 300.625 2.77322 298.753C0.91543 296.896 0 294.378 0 291.215V10.339C0 6.89265 0.91543 4.30791 2.77322 2.58474C4.61754 0.861582 7.24267 0 10.6621 0H33.6825C37.0884 0 39.7135 0.861582 41.5713 2.58474C43.4156 4.30791 44.3445 6.89265 44.3445 10.339V120.191H75.0249V10.339C75.0249 6.89265 75.9403 4.30791 77.7981 2.58474C79.6424 0.861582 81.9849 0 84.8254 0H108.694C112.1 0 114.658 0.861582 116.367 2.58474C118.077 4.30791 118.925 6.89265 118.925 10.339V291.215C118.925 294.378 118.077 296.882 116.367 298.753C114.658 300.625 112.1 301.554 108.694 301.554H84.8254C81.9849 301.554 79.6424 300.625 77.7981 298.753C75.9403 296.896 75.0249 294.378 75.0249 291.215V158.531H44.3445V291.215C44.3445 294.378 43.4156 296.882 41.5713 298.753H41.5578Z" fill="#2A5EF3"/>
<path d="M145.123 298.753C143.265 296.896 142.349 294.378 142.349 291.215V10.339C142.349 6.89265 143.265 4.30791 145.123 2.58474C146.967 0.861582 149.606 0 153.011 0H218.222C221.628 0 224.186 0.861582 225.896 2.58474C227.606 4.30791 228.454 6.89265 228.454 10.339V30.1554C228.454 33.319 227.606 35.8229 225.896 37.6942C224.186 39.5654 221.628 40.4943 218.222 40.4943H186.68V261.059H218.222C221.628 261.059 224.186 261.921 225.896 263.644C227.606 265.367 228.454 267.952 228.454 271.398V291.215C228.454 294.378 227.606 296.882 225.896 298.753C224.186 300.625 221.628 301.554 218.222 301.554H153.011C149.606 301.554 146.967 300.625 145.123 298.753ZM164.091 124.929H212.676C215.799 124.929 218.222 125.872 219.919 127.729C221.628 129.601 222.476 132.253 222.476 135.699V155.085C222.476 158.248 221.628 160.685 219.919 162.408C218.209 164.131 215.799 164.993 212.676 164.993H164.091V124.929Z" fill="#2A5EF3"/>
<path d="M258.488 290.353C249.253 280.593 244.635 266.956 244.635 249.428V228.75C244.635 225.6 245.483 223.082 247.193 221.211C248.903 219.34 251.461 218.411 254.867 218.411H277.456C280.862 218.411 283.487 219.34 285.345 221.211C287.189 223.082 288.118 225.586 288.118 228.75V250.289C288.118 256.899 289.249 261.571 291.524 264.29C293.799 267.023 297.919 268.383 303.882 268.383C309.846 268.383 313.535 266.875 315.81 263.859C318.085 260.844 319.216 256.038 319.216 249.428V157.239H317.506C315.231 169.301 310.829 178.495 304.3 184.809C297.757 191.123 289.384 194.287 279.152 194.287C267.494 194.287 258.542 190.625 252.295 183.301C246.049 175.978 242.926 164.993 242.926 150.346V10.339C242.926 7.18882 243.774 4.67139 245.483 2.80014C247.193 0.942355 249.751 0 253.157 0H276.595C279.718 0 282.208 0.942355 284.053 2.80014C285.897 4.67139 286.826 7.17536 286.826 10.339V136.13C286.826 141.299 287.957 145.244 290.232 147.977C292.507 150.709 295.913 152.069 300.463 152.069C305.861 152.069 310.331 149.915 313.885 145.607C317.439 141.299 319.216 134.838 319.216 126.222V10.339C319.216 7.18882 320.131 4.67139 321.989 2.80014C323.833 0.942355 326.459 0 329.878 0H352.898C356.022 0 358.512 0.942355 360.356 2.80014C362.201 4.67139 363.13 7.17536 363.13 10.339V243.828C363.13 263.644 358.66 278.789 349.708 289.276C340.755 299.763 325.476 305 303.896 305C282.316 305 267.736 300.127 258.501 290.353H258.488Z" fill="#FDFEE4"/>
<path d="M411.715 301.554H387.846C384.144 301.554 381.519 300.625 379.957 298.753C378.396 296.896 377.898 294.23 378.463 290.784L399.343 40.0635L433.86 40.4943L421.933 291.215C421.65 298.107 418.23 301.554 411.701 301.554H411.715ZM390.835 38.125C389.125 36.2537 388.277 33.7498 388.277 30.5861V10.339C388.277 7.18882 389.125 4.67139 390.835 2.80014C392.545 0.942355 394.954 0 398.078 0H465.416C471.379 0 474.785 3.44633 475.647 10.339L499.946 290.784C500.229 294.23 499.515 296.896 497.819 298.753C496.109 300.625 493.417 301.554 489.728 301.554H465.86C462.454 301.554 459.896 300.692 458.186 298.969C456.477 297.246 455.48 294.661 455.198 291.215L442.409 40.9251H398.078C394.941 40.9251 392.531 39.9962 390.835 38.125ZM417.248 169.301H460.3V207.21H417.248V169.301Z" fill="#FDFEE4"/>
</g>
<defs>
<clipPath id="clip0_286_13442">
<rect width="500" height="305" fill="white"/>
</clipPath>
</defs>
</svg>
