<svg width="96" height="54" viewBox="0 0 96 54" fill="none" xmlns="http://www.w3.org/2000/svg">
<path d="M8.45182 52.8167C8.10567 53.1629 7.58645 53.336 6.92299 53.336H2.04805C1.3846 53.336 0.865375 53.1629 0.519225 52.8167C0.173076 52.4706 0 51.9514 0 51.2879V2.07698C0 1.41353 0.173076 0.923147 0.519225 0.548152C0.865375 0.202002 1.3846 0.0289307 2.04805 0.0289307H6.92299C7.58645 0.0289307 8.07683 0.202002 8.45182 0.548152C8.79797 0.894301 8.97104 1.41353 8.97104 2.07698V18.2883C8.97104 19.7221 10.1334 20.8844 11.5672 20.8844V20.8844C13.001 20.8844 14.1633 19.7221 14.1633 18.2883V2.07698C14.1633 1.41353 14.3364 0.923147 14.6825 0.548152C15.0287 0.202002 15.5479 0.0289307 16.2113 0.0289307H21.0863C21.692 0.0289307 22.1824 0.202002 22.5574 0.548152C22.9324 0.894301 23.1343 1.41353 23.1343 2.07698V51.2591C23.1343 51.9225 22.9324 52.4418 22.5574 52.7879C22.1824 53.1341 21.692 53.3071 21.0863 53.3071H16.2113C15.5479 53.3071 15.0287 53.1341 14.6825 52.7879C14.3364 52.4418 14.1633 51.9225 14.1633 51.2591V31.2401C14.1633 29.8063 13.001 28.644 11.5672 28.644V28.644C10.1334 28.644 8.97104 29.8063 8.97104 31.2401V51.2591C8.97104 51.9514 8.79797 52.4418 8.45182 52.8167Z" fill="#FDFEE4"/>
<path d="M27.5477 52.8167C27.2016 52.4705 27.0285 51.9513 27.0285 51.2878V2.07689C27.0285 1.41343 27.2016 0.923055 27.5477 0.54806C27.8939 0.20191 28.4131 0.0288391 29.0766 0.0288391H41.336C41.9995 0.0288391 42.4899 0.20191 42.8648 0.54806C43.211 0.89421 43.3841 1.41343 43.3841 2.07689V6.1153C43.3841 6.72106 43.211 7.21144 42.8648 7.55759C42.5187 7.90374 41.9995 8.07682 41.336 8.07682V8.07682C38.3888 8.07682 35.9995 10.466 35.9995 13.4133V39.8937C35.9995 42.841 38.3888 45.2302 41.336 45.2302V45.2302C41.9995 45.2302 42.4899 45.4033 42.8648 45.7206C43.211 46.0379 43.3841 46.5571 43.3841 47.1917V51.2301C43.3841 51.8936 43.211 52.4128 42.8648 52.759C42.5187 53.1051 41.9995 53.2782 41.336 53.2782H29.0766C28.4131 53.3359 27.9227 53.1628 27.5477 52.8167ZM31.3554 25.7449C31.3554 23.5225 33.157 21.7209 35.3794 21.7209H40.3553C41.0187 21.7209 41.5091 21.894 41.8841 22.2401C42.2302 22.5863 42.4033 23.1055 42.4033 23.7689V27.8073C42.4033 28.4131 42.2302 28.9035 41.8841 29.2496C41.5379 29.5958 41.0187 29.7689 40.3553 29.7689H35.3794C33.157 29.7689 31.3554 27.9673 31.3554 25.7449V25.7449Z" fill="#FDFEE4"/>
<path d="M48.5763 51.2301C46.7879 49.384 45.9225 46.7879 45.9225 43.4129V40.2976C45.9225 39.6918 46.0956 39.2014 46.4129 38.8553C46.7302 38.5091 47.2494 38.3361 47.884 38.3361H52.6724C53.3359 38.3361 53.8263 38.5091 54.2013 38.8553C54.5474 39.2014 54.7205 39.6918 54.7205 40.2976V43.6437C54.7205 44.711 54.9224 45.461 55.2974 45.9225C55.6724 46.3841 56.3647 46.6148 57.4032 46.6148C58.3262 46.6148 58.9897 46.3552 59.3935 45.8648C59.7974 45.3456 59.9993 44.5668 59.9993 43.4995V27.7829C59.9993 27.6689 59.9069 27.5766 59.793 27.5766V27.5766C59.6948 27.5766 59.6104 27.646 59.5899 27.742C59.1218 29.9393 58.2967 31.6149 57.1147 32.7688C55.9032 33.9227 54.3167 34.5284 52.384 34.5284C50.1917 34.5284 48.5186 33.865 47.3648 32.5381C46.1821 31.2112 45.6052 29.1631 45.6052 26.3651V2.0769C45.6052 1.41344 45.7783 0.923064 46.0956 0.548068C46.4129 0.201919 46.9321 0.0288476 47.5667 0.0288476H52.5282C53.134 0.0288476 53.6244 0.201919 53.9705 0.548068C54.3167 0.894218 54.4897 1.41344 54.4897 2.0769V23.3939C54.4897 24.2016 54.6916 24.8651 55.0666 25.3266C55.4416 25.817 56.0186 26.0478 56.7685 26.0478C57.6916 26.0478 58.4416 25.6728 59.0474 24.9516C59.6531 24.2305 59.9704 23.1632 59.9704 21.7786V2.04805C59.9704 1.3846 60.1435 0.894221 60.4897 0.519225C60.8358 0.173076 61.355 0 62.0185 0H66.8069C67.4703 0 67.9607 0.173076 68.3357 0.519225C68.6819 0.865375 68.8549 1.3846 68.8549 2.04805V42.2591C68.8549 46.0091 67.9896 48.9225 66.23 50.9417C64.4704 52.9609 61.5281 53.9993 57.3455 53.9993C53.307 54.0282 50.3648 53.1051 48.5763 51.2301Z" fill="#FDFEE4"/>
<path d="M78.2875 53.3359H73.2683C72.6626 53.3359 72.1722 53.134 71.826 52.759C71.4799 52.384 71.3357 51.8647 71.451 51.2013L74.9622 11.3811C75.1295 9.48449 76.7296 8.03692 78.6335 8.05995V8.05995C80.6974 8.08492 82.3279 9.81875 82.2262 11.8803L80.2779 51.3744C80.2202 52.6724 79.5567 53.3359 78.2875 53.3359ZM73.7875 7.67298C73.4414 7.29798 73.2683 6.83645 73.2683 6.25953V2.07689C73.2683 1.41343 73.4414 0.923055 73.7875 0.54806C74.1337 0.20191 74.6529 0.0288391 75.3164 0.0288391H88.5566C89.7681 0.0288391 90.4604 0.721136 90.6047 2.07689L95.1046 51.2013C95.22 51.8647 95.1046 52.384 94.7584 52.759C94.4411 53.134 93.9219 53.3359 93.2008 53.3359H88.1816C87.5182 53.3359 86.9989 53.1628 86.6239 52.8455C86.2489 52.5282 86.047 52.009 86.047 51.3744L84.3611 15.899C84.1584 11.6332 80.6408 8.27874 76.3701 8.27874H75.3164C74.6529 8.24989 74.1337 8.07682 73.7875 7.67298ZM79.4125 33.9803C79.4125 31.8774 81.1172 30.1727 83.2201 30.1727H83.3644C85.4673 30.1727 87.172 31.8774 87.172 33.9803V33.9803C87.172 36.0833 85.4673 37.788 83.3644 37.788H83.2201C81.1172 37.788 79.4125 36.0833 79.4125 33.9803V33.9803Z" fill="#FDFEE4"/>
</svg>
