<svg width="80" height="80" viewBox="0 0 80 80" fill="none" xmlns="http://www.w3.org/2000/svg">
    <g clip-path="url(#clip0_138_9667)">
        <path d="M40 80C17.904 80 0 62.096 0 40C0 17.904 17.904 0 40 0C62.096 0 80 17.904 80 40C80 62.096 62.096 80 40 80Z" fill="#2A5EF3"/>
        <path d="M18.6079 53.3761C18.4159 53.5681 18.1279 53.6641 17.7599 53.6641H15.0559C14.6879 53.6641 14.3999 53.5681 14.2079 53.3761C14.0159 53.1841 13.9199 52.8961 13.9199 52.5281V25.2321C13.9199 24.8641 14.0159 24.5921 14.2079 24.3841C14.3999 24.1921 14.6879 24.0961 15.0559 24.0961H17.7599C18.1279 24.0961 18.3999 24.1921 18.6079 24.3841C18.7999 24.5761 18.8959 24.8641 18.8959 25.2321V35.6641H21.7759V25.2321C21.7759 24.8641 21.8719 24.5921 22.0639 24.3841C22.2559 24.1921 22.5439 24.0961 22.9119 24.0961H25.6159C25.9519 24.0961 26.2239 24.1921 26.4319 24.3841C26.6399 24.5761 26.7519 24.8641 26.7519 25.2321V52.5121C26.7519 52.8801 26.6399 53.1681 26.4319 53.3601C26.2239 53.5521 25.9519 53.6481 25.6159 53.6481H22.9119C22.5439 53.6481 22.2559 53.5521 22.0639 53.3601C21.8719 53.1681 21.7759 52.8801 21.7759 52.5121V39.9681H18.8959V52.5121C18.8959 52.8961 18.7999 53.1681 18.6079 53.3761Z" fill="#FDFEE4"/>
        <path d="M29.1999 53.376C29.0079 53.184 28.9119 52.896 28.9119 52.528V25.232C28.9119 24.864 29.0079 24.592 29.1999 24.384C29.3919 24.192 29.6799 24.096 30.0479 24.096H36.8479C37.2159 24.096 37.4879 24.192 37.6959 24.384C37.8879 24.576 37.9839 24.864 37.9839 25.232V27.472C37.9839 27.808 37.8879 28.08 37.6959 28.272C37.5039 28.464 37.2159 28.56 36.8479 28.56H33.8879V49.168H36.8479C37.2159 49.168 37.4879 49.264 37.6959 49.44C37.8879 49.616 37.9839 49.904 37.9839 50.256V52.496C37.9839 52.864 37.8879 53.152 37.6959 53.344C37.5039 53.536 37.2159 53.632 36.8479 53.632H30.0479C29.6799 53.664 29.4079 53.568 29.1999 53.376ZM31.3119 36.128H36.3039C36.6719 36.128 36.9439 36.224 37.1519 36.416C37.3439 36.608 37.4399 36.896 37.4399 37.264V39.504C37.4399 39.84 37.3439 40.112 37.1519 40.304C36.9599 40.496 36.6719 40.592 36.3039 40.592H31.3119V36.128Z" fill="#FDFEE4"/>
        <path d="M40.8638 52.496C39.8718 51.472 39.3918 50.032 39.3918 48.16V46.432C39.3918 46.096 39.4878 45.824 39.6638 45.632C39.8398 45.44 40.1278 45.344 40.4798 45.344H43.1358C43.5038 45.344 43.7758 45.44 43.9838 45.632C44.1758 45.824 44.2718 46.096 44.2718 46.432V48.288C44.2718 48.88 44.3838 49.296 44.5918 49.552C44.7998 49.808 45.1838 49.936 45.7598 49.936C46.2718 49.936 46.6398 49.792 46.8638 49.52C47.0878 49.232 47.1998 48.8 47.1998 48.208V39.376H46.9918C46.7358 40.64 46.2718 41.6 45.5998 42.256C44.9278 42.896 44.0478 43.232 42.9758 43.232C41.7598 43.232 40.8318 42.864 40.1918 42.128C39.5358 41.392 39.2158 40.256 39.2158 38.704V25.232C39.2158 24.864 39.3118 24.592 39.4878 24.384C39.6638 24.192 39.9518 24.096 40.3038 24.096H43.0558C43.3918 24.096 43.6638 24.192 43.8558 24.384C44.0478 24.576 44.1438 24.864 44.1438 25.232V37.056C44.1438 37.504 44.2558 37.872 44.4638 38.128C44.6718 38.4 44.9918 38.528 45.4078 38.528C45.9198 38.528 46.3358 38.32 46.6718 37.92C47.0078 37.52 47.1838 36.928 47.1838 36.16V25.216C47.1838 24.848 47.2798 24.576 47.4718 24.368C47.6638 24.176 47.9518 24.08 48.3198 24.08H50.9758C51.3438 24.08 51.6158 24.176 51.8238 24.368C52.0158 24.56 52.1118 24.848 52.1118 25.216V47.52C52.1118 49.6 51.6318 51.216 50.6558 52.336C49.6798 53.456 48.0478 54.032 45.7278 54.032C43.4878 54.048 41.8558 53.536 40.8638 52.496Z" fill="#FDFEE4"/>
        <path d="M57.344 53.664H54.56C54.224 53.664 53.952 53.552 53.76 53.344C53.568 53.136 53.488 52.848 53.552 52.48L55.664 28.528L59.632 28.576L58.448 52.576C58.416 53.296 58.048 53.664 57.344 53.664ZM54.848 28.336C54.656 28.128 54.56 27.872 54.56 27.552V25.232C54.56 24.864 54.656 24.592 54.848 24.384C55.04 24.192 55.328 24.096 55.696 24.096H63.04C63.712 24.096 64.096 24.48 64.176 25.232L66.672 52.48C66.736 52.848 66.672 53.136 66.48 53.344C66.304 53.552 66.016 53.664 65.616 53.664H62.832C62.464 53.664 62.176 53.568 61.968 53.392C61.76 53.216 61.648 52.928 61.648 52.576L60.512 28.672H55.696C55.328 28.656 55.04 28.56 54.848 28.336ZM57.968 40.816H62.272V45.04H57.968V40.816Z" fill="#FDFEE4"/>
    </g>
    <defs>
        <clipPath id="clip0_138_9667">
            <rect width="80" height="80" fill="white"/>
        </clipPath>
    </defs>
</svg>
