<svg width="37" height="36" viewBox="0 0 37 36" fill="none" xmlns="http://www.w3.org/2000/svg">
<path d="M3.5 11.5C3.5 9.61438 3.5 8.67157 4.08579 8.08579C4.67157 7.5 5.61438 7.5 7.5 7.5H29.5C31.3856 7.5 32.3284 7.5 32.9142 8.08579C33.5 8.67157 33.5 9.61438 33.5 11.5V14C33.5 14.4714 33.5 14.7071 33.3536 14.8536C33.2071 15 32.9714 15 32.5 15H4.5C4.0286 15 3.79289 15 3.64645 14.8536C3.5 14.7071 3.5 14.4714 3.5 14V11.5Z" fill="#1D1A05"/>
<path fill-rule="evenodd" clip-rule="evenodd" d="M4.08579 32.4142C3.5 31.8284 3.5 30.8856 3.5 29V19C3.5 18.5286 3.5 18.2929 3.64645 18.1464C3.79289 18 4.0286 18 4.5 18H32.5C32.9714 18 33.2071 18 33.3536 18.1464C33.5 18.2929 33.5 18.5286 33.5 19V29C33.5 30.8856 33.5 31.8284 32.9142 32.4142C32.3284 33 31.3856 33 29.5 33H7.5C5.61438 33 4.67157 33 4.08579 32.4142ZM12.5 24.5C11.9477 24.5 11.5 24.9477 11.5 25.5C11.5 26.0523 11.9477 26.5 12.5 26.5H24.5C25.0523 26.5 25.5 26.0523 25.5 25.5C25.5 24.9477 25.0523 24.5 24.5 24.5H12.5Z" fill="#1D1A05"/>
<path d="M11 4.5L11 9" stroke="#1D1A05" stroke-width="2" stroke-linecap="round"/>
<path d="M26 4.5L26 9" stroke="#1D1A05" stroke-width="2" stroke-linecap="round"/>
</svg>
