<svg width="43" height="36" viewBox="0 0 43 36" fill="none" xmlns="http://www.w3.org/2000/svg">
<path fill-rule="evenodd" clip-rule="evenodd" d="M9.73031 15.1893C9.25 16.0844 9.25 17.1027 9.25 19.1393V25.4999C9.25 28.3283 9.25 29.7425 10.2751 30.6212C11.2872 31.4887 12.9083 31.4998 16.125 31.4999V24C16.125 22.4802 17.5064 21.5 18.875 21.5H24.125C25.4936 21.5 26.875 22.4802 26.875 24V31.4999C30.0917 31.4998 31.7128 31.4887 32.7249 30.6212C33.75 29.7425 33.75 28.3283 33.75 25.4999V19.1393C33.75 17.1027 33.75 16.0844 33.2697 15.1893C32.7894 14.2942 31.8874 13.6314 30.0833 12.306L28.3333 11.0203C25.0725 8.6246 23.4421 7.42676 21.5 7.42676C19.5579 7.42676 17.9275 8.6246 14.6667 11.0203L12.9167 12.306C11.1126 13.6314 10.2106 14.2942 9.73031 15.1893ZM24.875 31.4999V24C24.875 23.9166 24.838 23.8069 24.7116 23.6986C24.5832 23.5885 24.3789 23.5 24.125 23.5H18.875C18.6211 23.5 18.4168 23.5885 18.2884 23.6986C18.162 23.8069 18.125 23.9166 18.125 24V31.4999H24.875Z" fill="#668CEF"/>
</svg>
