<svg width="33" height="20" viewBox="0 0 33 20" fill="none" xmlns="http://www.w3.org/2000/svg">
<g clip-path="url(#clip0_288_11254)">
<path d="M32.3722 10.8007C32.73 6.83119 30.5291 4.02339 27.0558 3.92471C23.4285 3.81706 19.7967 3.85743 16.1695 3.92471C15.6306 3.93368 14.6796 4.39567 14.6434 4.72758C14.4577 6.44994 14.4351 8.19473 14.5302 9.92606C14.5483 10.24 15.3725 10.7603 15.8298 10.7648C21.3002 10.8231 26.7705 10.8007 32.3722 10.8007ZM13.3754 7.16759C13.4841 5.04604 11.8267 3.17567 9.69379 3.02316C7.31184 2.85272 5.22875 4.78589 5.36008 7.17656C5.41895 8.28892 6.0167 9.31157 6.88616 10.0202C9.63945 12.2629 13.226 10.0202 13.3754 7.16759Z" fill="white"/>
<path d="M2.43469 0C3.32226 0 4.07851 0.645885 4.20531 1.51155C4.44531 3.13523 4.71249 4.75443 4.75325 6.3826C4.87552 11.3523 4.80306 11.3613 9.87038 11.3703C16.4819 11.3837 23.098 11.4465 29.7095 11.3568C31.8197 11.3299 32.7254 11.9668 32.5443 14.1242C32.4356 15.4295 32.4673 16.7481 32.4945 18.1476C32.5126 19.0626 31.7971 19.8296 30.8778 19.8879C30.5155 19.9103 30.1623 19.9327 29.8091 19.9507C28.5909 20.0224 28.1653 19.4618 28.0249 18.2732C27.9479 17.6273 27.1871 16.5418 26.7207 16.5329C19.5477 16.4207 12.3746 16.4566 5.28308 16.4566C5.26043 16.4566 5.23779 16.4745 5.22873 16.497C4.34116 19.529 4.14191 20.157 2.26261 19.9686C1.22107 19.8654 0.428589 18.9863 0.428589 17.9457C0.428589 14.2947 0.428589 5.84884 0.428589 1.98699C0.428589 0.888091 1.32522 0 2.43469 0Z" fill="black"/>
<path d="M32.3722 10.8007C26.7705 10.8007 21.3002 10.8231 15.8298 10.7648C15.3724 10.7603 14.5483 10.24 14.5301 9.92606C14.435 8.19473 14.4532 6.44995 14.6433 4.72759C14.6796 4.40016 15.6305 3.93369 16.1694 3.92472C19.7967 3.85744 23.4285 3.82155 27.0558 3.92472C30.5291 4.02788 32.7299 6.8312 32.3722 10.8007Z" fill="black"/>
<path d="M13.3754 7.16761C13.226 10.0158 9.64398 12.2629 6.88616 10.0203C6.0167 9.31159 5.42348 8.29343 5.36008 7.17658C5.22875 4.78143 7.31184 2.85274 9.69379 3.02319C11.8222 3.17569 13.4841 5.04606 13.3754 7.16761Z" fill="black"/>
</g>
<defs>
<clipPath id="clip0_288_11254">
<rect width="32.1429" height="20" fill="white" transform="translate(0.428589)"/>
</clipPath>
</defs>
</svg>
