<svg width="33" height="20" viewBox="0 0 33 20" fill="none" xmlns="http://www.w3.org/2000/svg">
<g clip-path="url(#clip0_288_11609)">
<path d="M32.3725 10.8006C32.7303 6.83107 30.5294 4.02327 27.0561 3.92459C23.4289 3.81694 19.797 3.85731 16.1698 3.92459C15.6309 3.93356 14.6799 4.39555 14.6437 4.72746C14.458 6.44982 14.4354 8.19461 14.5305 9.92594C14.5486 10.2399 15.3728 10.7602 15.8301 10.7647C21.3005 10.823 26.7708 10.8006 32.3725 10.8006ZM13.3757 7.16747C13.4844 5.04592 11.827 3.17554 9.6941 3.02304C7.31214 2.8526 5.22906 4.78577 5.36038 7.17644C5.41925 8.2888 6.01701 9.31145 6.88647 10.0201C9.63976 12.2628 13.2263 10.0201 13.3757 7.16747Z" fill="white"/>
<path d="M2.43481 0C3.32238 0 4.07863 0.645885 4.20543 1.51155C4.44544 3.13523 4.71261 4.75443 4.75337 6.3826C4.87564 11.3523 4.80318 11.3613 9.87051 11.3703C16.482 11.3837 23.0981 11.4465 29.7096 11.3568C31.8198 11.3299 32.7255 11.9668 32.5444 14.1242C32.4357 15.4295 32.4674 16.7481 32.4946 18.1476C32.5127 19.0626 31.7972 19.8296 30.8779 19.8879C30.5157 19.9103 30.1624 19.9327 29.8092 19.9507C28.5911 20.0224 28.1654 19.4618 28.025 18.2732C27.948 17.6273 27.1873 16.5418 26.7208 16.5329C19.5478 16.4207 12.3747 16.4566 5.2832 16.4566C5.26055 16.4566 5.23791 16.4745 5.22886 16.497C4.34128 19.529 4.14203 20.157 2.26273 19.9686C1.22119 19.8654 0.428711 18.9863 0.428711 17.9457C0.428711 14.2947 0.428711 5.84884 0.428711 1.98699C0.428711 0.888091 1.32534 0 2.43481 0Z" fill="#668CEF"/>
<path d="M32.3728 10.8006C26.7711 10.8006 21.3008 10.823 15.8304 10.7647C15.373 10.7602 14.5489 10.2399 14.5307 9.92594C14.4357 8.19461 14.4538 6.44982 14.644 4.72746C14.6802 4.40004 15.6312 3.93356 16.17 3.92459C19.7973 3.85731 23.4291 3.82143 27.0564 3.92459C30.5297 4.02776 32.7305 6.83108 32.3728 10.8006Z" fill="#668CEF"/>
<path d="M13.3757 7.16749C13.2263 10.0157 9.64429 12.2628 6.88647 10.0201C6.01701 9.31147 5.42378 8.2933 5.36038 7.17646C5.22906 4.78131 7.31214 2.85262 9.6941 3.02306C11.8225 3.17557 13.4844 5.04594 13.3757 7.16749Z" fill="#668CEF"/>
</g>
<defs>
<clipPath id="clip0_288_11609">
<rect width="32.1429" height="20" fill="white" transform="translate(0.428711)"/>
</clipPath>
</defs>
</svg>
